<svg id="レイヤー_1" data-name="レイヤー 1" xmlns="http://www.w3.org/2000/svg" viewBox="0 0 504.45 620.41"><defs><style>.cls-1,.cls-2{stroke:#000;}.cls-2{fill:none;stroke-width:3px;}</style></defs><ellipse class="cls-1" cx="235.56" cy="522.88" rx="235.06" ry="97.02"/><path class="cls-1" d="M508.27,400.45c-19.74-3.75-39.83-1.71-39.83-1.71s6.47-6.46,6.47-15c0,0,0-30.29-19.92-48.68S358.48,283,281.89,284.53,89.38,305,76.61,367.25c0,0-5.11,10.39,0,25.37,0,0,13.62,102.8,49,142.63s87.49,74.56,153.19,74.56,112.34-42.56,112.34-42.56,22.47,1,53.11-7.83,99.74-45.61,104.51-87S528,404.19,508.27,400.45Zm-2.72,104.68c-25.54,27.06-79.66,28.08-79.66,28.08s4.08-7.15,17.87-31.66,20.94-70,20.94-70,7.14-5.1,27.06-5.61,31.66,28.08,31.66,28.08S531.08,478.06,505.55,505.13Z" transform="translate(-45.41 -69.53)"/><path class="cls-2" d="M205.47,72.62c-45.5,11.61-71.05,58.79-58.22,99.57,10.23,32.48,77.72,20.58,91.92,52.09,8.48,18.82-1.07,53-70.47,119.48" transform="translate(-45.41 -69.53)"/><path class="cls-2" d="M287,71C241.5,82.6,216,129.78,228.78,170.56,239,203,306.5,191.14,320.7,222.65c8.48,18.82-1.07,53-70.47,119.49" transform="translate(-45.41 -69.53)"/><path class="cls-2" d="M362.54,71c-45.5,11.61-71.05,58.79-58.21,99.57,10.22,32.48,77.72,20.58,91.91,52.09,8.48,18.82-1.07,53-70.47,119.49" transform="translate(-45.41 -69.53)"/></svg>